<svg width="24" height="18" viewBox="0 0 24 18" fill="none" xmlns="http://www.w3.org/2000/svg">
<g id="brightness_2_24px">
<path id="icon/image/brightness_2_24px" fill-rule="evenodd" clip-rule="evenodd" d="M5.01546 2.54134C6.39996 1.93956 8.01049 1.58557 9.72462 1.58557C14.9235 1.58557 19.1429 4.7573 19.1429 8.66532C19.1429 12.5733 14.9235 15.7451 9.72462 15.7451C8.01049 15.7451 6.39996 15.3911 5.01546 14.7893C7.83154 13.5645 9.72462 11.2848 9.72462 8.66532C9.72462 6.04581 7.83154 3.76613 5.01546 2.54134ZM17.2593 8.66532C17.2593 5.54315 13.8781 3.00152 9.72462 3.00152C9.4044 3.00152 9.08418 3.01568 8.77337 3.05108C10.5723 4.5803 11.6083 6.57679 11.6083 8.66532C11.6083 10.7538 10.5723 12.7503 8.77337 14.2796C9.08418 14.315 9.4044 14.3291 9.72462 14.3291C13.8781 14.3291 17.2593 11.7875 17.2593 8.66532Z" fill="#333333"/>
</g>
</svg>
