<svg width="23" height="18" viewBox="0 0 23 18" fill="none" xmlns="http://www.w3.org/2000/svg">
<g id="thumb_down_24px">
<path id="icon/action/thumb_down_24px" fill-rule="evenodd" clip-rule="evenodd" d="M14.479 1.58203H6.00249C5.22077 1.58203 4.55207 1.93602 4.26952 2.44576L1.42519 7.43698C1.34043 7.59982 1.29333 7.76973 1.29333 7.9538V9.36975C1.29333 10.1485 2.14098 10.7857 3.177 10.7857H9.11996L8.22522 14.0211L8.19696 14.2477C8.19696 14.538 8.35707 14.807 8.61137 14.9982L9.60971 15.7415L15.8164 11.076C16.1554 10.8211 16.3626 10.4671 16.3626 10.0777V2.99798C16.3626 2.21921 15.515 1.58203 14.479 1.58203ZM14.479 10.0777L10.3914 13.1503L11.6535 9.36975H3.177V7.9538L6.00249 2.99798H14.479V10.0777ZM22.0136 1.58203H18.2463V10.0777H22.0136V1.58203Z" fill="black" fill-opacity="0.54"/>
</g>
</svg>
