<svg width="23" height="18" viewBox="0 0 23 18" fill="none" xmlns="http://www.w3.org/2000/svg">
<g id="thumb_up_24px">
<path id="icon/action/thumb_up_24px" fill-rule="evenodd" clip-rule="evenodd" d="M8.82799 15.7272H17.3045C18.0862 15.7272 18.7549 15.3733 19.0374 14.8635L21.8818 9.87229C21.9665 9.70946 22.0136 9.53954 22.0136 9.35547V7.93952C22.0136 7.16075 21.166 6.52357 20.13 6.52357H14.187L15.0817 3.28813L15.11 3.06158C15.11 2.77131 14.9499 2.50228 14.6956 2.31112L13.6973 1.56775L7.49059 6.2333C7.15153 6.48817 6.94432 6.84216 6.94432 7.23155V14.3113C6.94432 15.0901 7.79197 15.7272 8.82799 15.7272ZM8.82799 7.23155L12.9155 4.15894L11.6535 7.93952H20.13V9.35547L17.3045 14.3113H8.82799V7.23155ZM5.06066 7.23155H1.29333V15.7272H5.06066V7.23155Z" fill="black" fill-opacity="0.54"/>
</g>
</svg>
