<svg width="24" height="18" viewBox="0 0 24 18" fill="none" xmlns="http://www.w3.org/2000/svg">
<g id="grid_on_24px">
<path id="icon/image/grid_on_24px" fill-rule="evenodd" clip-rule="evenodd" d="M4.54455 1.71216H19.6139C20.6499 1.71216 21.4975 2.34934 21.4975 3.12811V14.4557C21.4975 15.2345 20.6499 15.8717 19.6139 15.8717H4.54455C3.50853 15.8717 2.66088 15.2345 2.66088 14.4557V3.12811C2.66088 2.34934 3.50853 1.71216 4.54455 1.71216ZM4.54455 14.4557H8.31187V11.6238H4.54455V14.4557ZM8.31187 10.2079H4.54455V7.37596H8.31187V10.2079ZM4.54455 5.96001H8.31187V3.12811H4.54455V5.96001ZM13.9629 14.4557H10.1955V11.6238H13.9629V14.4557ZM10.1955 10.2079H13.9629V7.37596H10.1955V10.2079ZM13.9629 5.96001H10.1955V3.12811H13.9629V5.96001ZM15.8465 14.4557H19.6139V11.6238H15.8465V14.4557ZM19.6139 10.2079H15.8465V7.37596H19.6139V10.2079ZM15.8465 5.96001H19.6139V3.12811H15.8465V5.96001Z" fill="#333333"/>
</g>
</svg>
