<svg width="18" height="18" viewBox="0 0 18 18" fill="none" xmlns="http://www.w3.org/2000/svg">
<path fill-rule="evenodd" clip-rule="evenodd" d="M9.27722 16.9269L9.74311 16.5201C13.6609 13.0991 15.6522 10.1121 15.6522 7.48651C15.6522 3.76823 12.7501 1.11151 9.27722 1.11151C5.8043 1.11151 2.90222 3.76823 2.90222 7.48651C2.90222 10.1121 4.89356 13.0991 8.81133 16.5201L9.27722 16.9269ZM9.27721 15.0398C5.95273 12.0436 4.31888 9.50471 4.31888 7.48651C4.31888 4.57993 6.56012 2.52817 9.27721 2.52817C11.9943 2.52817 14.2355 4.57993 14.2355 7.48651C14.2355 9.50471 12.6017 12.0436 9.27721 15.0398ZM9.27722 3.94486C11.2332 3.94486 12.8189 5.53052 12.8189 7.48653C12.8189 9.44254 11.2332 11.0282 9.27722 11.0282C7.32121 11.0282 5.73556 9.44254 5.73556 7.48653C5.73556 5.53052 7.32121 3.94486 9.27722 3.94486ZM7.15221 7.48648C7.15221 6.31288 8.10361 5.36149 9.27722 5.36149C10.4508 5.36149 11.4022 6.31288 11.4022 7.48648C11.4022 8.66009 10.4508 9.61148 9.27722 9.61148C8.10361 9.61148 7.15221 8.66009 7.15221 7.48648Z" fill="black"/>
</svg>
